<svg xmlns="http://www.w3.org/2000/svg" viewBox="0 0 474.35 474.35"><defs><style>.cls-1{fill:#fff;}.cls-2{fill:none;stroke:#000;stroke-linecap:round;stroke-linejoin:round;stroke-width:9px;}</style></defs><g id="Layer_2" data-name="Layer 2"><g id="Layer_1-2" data-name="Layer 1"><circle class="cls-1" cx="237.18" cy="237.18" r="237.18"/><path class="cls-2" d="M237,40h20.49c7.18,0,12.23,7.56,9.87,14.8L256.88,87a10,10,0,0,1-9.4,7.13H237"/><path class="cls-2" d="M237,107.52l5.67,0c6.88,0,12.61,5.59,13.18,12.9l20.08,258a19.4,19.4,0,0,1-4.26,13.78l-34.43,42.17"/><path class="cls-2" d="M237.38,40H216.9c-7.19,0-12.23,7.56-9.88,14.8L217.48,87a10,10,0,0,0,9.4,7.13h10.5"/><path class="cls-2" d="M237.38,107.52l-5.67,0c-6.87,0-12.61,5.59-13.18,12.9l-20.08,258a19.4,19.4,0,0,0,4.26,13.78l34.5,42.17"/></g></g></svg>