<?xml version="1.0" encoding="UTF-8"?>
<svg width="6000px" height="6000px" viewBox="0 0 6000 6000" xmlns="http://www.w3.org/2000/svg" xmlns:xlink="http://www.w3.org/1999/xlink" version="1.1">
 <!-- Generated by Pixelmator Pro 2.1.2 -->
 <g id="Layer_2">
  <g id="Layer_1-2">
   <path id="Path" d="M6000 3000 C6000 4656.854 4656.854 6000 3000 6000 1343.146 6000 0 4656.854 0 3000 0 1343.146 1343.146 0 3000 0 4656.854 0 6000 1343.146 6000 3000 Z" fill="#f2f2f2" fill-opacity="1" stroke="none"/>
   <path id="Path-1" d="M761.778 3788.768 L761.778 3852.563 1488.55 3852.563 1488.55 3788.768 Z M761.778 3648.55 L761.778 3712.279 1488.55 3712.279 1488.55 3648.55 Z M761.778 3508.332 L761.778 3572.028 1488.55 3572.028 1488.55 3508.332 Z M621.592 2144.198 L621.592 3852.563 685.354 3852.563 685.354 2144.198 Z M481.374 2144.198 L481.374 3852.563 545.038 3852.563 545.038 2144.198 Z M341.123 2144.198 L341.123 3852.563 404.886 3852.563 404.886 2144.198 Z" fill="#000000" fill-opacity="1" stroke="none"/>
   <path id="Path-2" d="M2181.101 2144.198 L2181.101 3852.563 2244.864 3852.563 2244.864 2144.198 Z M2321.352 2144.198 L2321.352 3852.563 2384.951 3852.563 2384.951 2144.198 Z M2461.603 2144.198 L2461.603 3852.563 2525.333 3852.563 2525.333 2144.198 Z M2601.821 2735.005 L2601.821 2845.452 2788.822 3111.036 2827.067 3055.616 Z M2601.821 2490.654 L2601.821 2600.872 2873.817 2989.858 2912.061 2932.475 Z M2601.821 2233.511 L2601.821 2346.02 2960.905 2866.587 2999.149 2809.269 Z M3007.656 3425.3 L3045.802 3480.687 3479.28 2864.526 3479.28 2751.886 Z M2922.595 3302.061 L2960.84 3359.444 3479.313 2620.076 3479.313 2507.535 Z M2835.474 3178.855 L2875.845 3234.111 3479.313 2371.407 3479.313 2263.184 Z M3555.802 2144.068 L3555.802 3852.563 3619.531 3852.563 3619.531 2144.198 Z M3696.052 2144.068 L3696.052 3852.563 3759.782 3852.563 3759.782 2144.198 Z M3836.271 2144.068 L3836.271 3852.563 3900.033 3852.563 3900.033 2144.198 Z" fill="#000000" fill-opacity="1" stroke="none"/>
   <path id="Path-3" d="M5489.444 2693.424 C5441.287 2602.061 5371.875 2529.116 5281.21 2474.591 5190.545 2420.065 5082.181 2392.802 4956.118 2392.802 4830.033 2392.802 4721.668 2420.065 4631.025 2474.591 4540.381 2529.116 4470.97 2602.061 4422.792 2693.424 4374.591 2784.809 4350.513 2886.445 4350.556 2998.332 4350.556 3108.866 4374.634 3210.164 4422.792 3302.225 4470.949 3394.286 4540.36 3467.59 4631.025 3522.137 4721.646 3576.663 4830.011 3603.926 4956.118 3603.926 5082.225 3603.926 5190.589 3576.663 5281.21 3522.137 5371.832 3467.612 5441.243 3394.308 5489.444 3302.225 5537.644 3210.142 5561.701 3108.844 5561.614 2998.332 5561.614 2886.445 5537.557 2784.809 5489.444 2693.424 Z M5434.188 3269.215 C5391.701 3350.741 5330.087 3415.9 5249.345 3464.689 5168.604 3513.479 5070.861 3537.928 4956.118 3538.037 4842.705 3538.037 4745.321 3513.588 4663.969 3464.689 4582.617 3415.791 4520.632 3350.632 4478.015 3269.215 4435.55 3187.775 4414.308 3097.47 4414.286 2998.299 4414.264 2899.128 4435.507 2808.822 4478.015 2727.383 4520.545 2645.965 4582.53 2580.807 4663.969 2531.908 4745.409 2483.01 4842.792 2458.583 4956.118 2458.626 5070.861 2458.626 5168.604 2483.053 5249.345 2531.908 5330.087 2580.764 5391.701 2645.922 5434.188 2727.383 5476.674 2808.909 5497.928 2899.215 5497.95 2998.299 5497.972 3097.383 5476.717 3187.699 5434.188 3269.248 Z M5489.444 2693.424 C5441.287 2602.061 5371.875 2529.116 5281.21 2474.591 5190.545 2420.065 5082.181 2392.802 4956.118 2392.802 4830.033 2392.802 4721.668 2420.065 4631.025 2474.591 4540.381 2529.116 4470.97 2602.061 4422.792 2693.424 4374.591 2784.809 4350.513 2886.445 4350.556 2998.332 4350.556 3108.866 4374.634 3210.164 4422.792 3302.225 4470.949 3394.286 4540.36 3467.59 4631.025 3522.137 4721.646 3576.663 4830.011 3603.926 4956.118 3603.926 5082.225 3603.926 5190.589 3576.663 5281.21 3522.137 5371.832 3467.612 5441.243 3394.308 5489.444 3302.225 5537.644 3210.142 5561.701 3108.844 5561.614 2998.332 5561.614 2886.445 5537.557 2784.809 5489.444 2693.424 Z M5434.188 3269.215 C5391.701 3350.741 5330.087 3415.9 5249.345 3464.689 5168.604 3513.479 5070.861 3537.928 4956.118 3538.037 4842.705 3538.037 4745.321 3513.588 4663.969 3464.689 4582.617 3415.791 4520.632 3350.632 4478.015 3269.215 4435.55 3187.775 4414.308 3097.47 4414.286 2998.299 4414.264 2899.128 4435.507 2808.822 4478.015 2727.383 4520.545 2645.965 4582.53 2580.807 4663.969 2531.908 4745.409 2483.01 4842.792 2458.583 4956.118 2458.626 5070.861 2458.626 5168.604 2483.053 5249.345 2531.908 5330.087 2580.764 5391.701 2645.922 5434.188 2727.383 5476.674 2808.909 5497.928 2899.215 5497.95 2998.299 5497.972 3097.383 5476.717 3187.699 5434.188 3269.248 Z M5649.945 2708.342 C5616.073 2619.715 5564.767 2538.784 5499.062 2470.338 5432.405 2401.136 5352.091 2346.546 5263.217 2310.033 5171.854 2271.778 5069.509 2252.65 4956.183 2252.65 4842.857 2252.65 4740.512 2271.778 4649.149 2310.033 4560.274 2346.546 4479.96 2401.136 4413.304 2470.338 4347.589 2538.776 4296.28 2619.709 4262.421 2708.342 4227.72 2798.31 4210.37 2894.973 4210.37 2998.332 4210.37 3101.69 4227.72 3198.386 4262.42 3288.419 4296.139 3376.803 4347.473 3457.41 4413.304 3525.343 4480.334 3594.1 4560.55 3648.624 4649.149 3685.649 4740.534 3724.667 4842.878 3744.155 4956.183 3744.111 5069.487 3744.067 5171.832 3724.58 5263.216 3685.649 5351.815 3648.624 5432.032 3594.1 5499.062 3525.343 5564.882 3457.402 5616.215 3376.797 5649.945 3288.419 5684.624 3198.451 5701.973 3101.756 5701.995 2998.332 5702.017 2894.907 5684.667 2798.244 5649.945 2708.342 Z M5555.365 3340.469 C5500.142 3443.849 5421.526 3526.009 5319.52 3586.946 5217.514 3647.884 5096.401 3678.342 4956.183 3678.321 4817.339 3678.321 4696.575 3647.863 4593.893 3586.946 4491.21 3526.031 4412.235 3443.871 4356.968 3340.469 4301.745 3237.088 4274.122 3123.042 4274.1 2998.332 4274.1 2872.312 4301.723 2757.928 4356.968 2655.18 4412.213 2552.432 4491.188 2470.644 4593.893 2409.814 4696.575 2348.854 4817.339 2318.385 4956.183 2318.407 5096.401 2318.407 5217.514 2348.876 5319.52 2409.814 5421.526 2470.752 5500.142 2552.541 5555.365 2655.18 5610.632 2757.928 5638.255 2872.312 5638.233 2998.332 5638.189 3123.021 5610.545 3237.066 5555.3 3340.469 Z M5281.21 2474.591 C5190.545 2420.065 5082.181 2392.802 4956.118 2392.802 4830.054 2392.802 4721.69 2420.065 4631.025 2474.591 4540.338 2529.116 4470.927 2602.061 4422.792 2693.424 4374.656 2784.787 4350.578 2886.423 4350.556 2998.332 4350.556 3108.866 4374.634 3210.164 4422.792 3302.224 4470.949 3394.286 4540.36 3467.59 4631.025 3522.137 4721.646 3576.663 4830.011 3603.926 4956.118 3603.926 5082.225 3603.926 5190.589 3576.663 5281.21 3522.137 5371.832 3467.612 5441.243 3394.307 5489.444 3302.224 5537.644 3210.142 5561.701 3108.844 5561.614 2998.332 5561.614 2886.445 5537.535 2784.809 5489.378 2693.424 5441.221 2602.039 5371.832 2529.095 5281.21 2474.591 Z M5434.188 3269.247 C5391.701 3350.774 5330.087 3415.932 5249.345 3464.722 5168.604 3513.511 5070.861 3537.96 4956.118 3538.07 4842.705 3538.07 4745.321 3513.62 4663.969 3464.722 4582.617 3415.823 4520.632 3350.665 4478.015 3269.247 4435.55 3187.808 4414.308 3097.503 4414.286 2998.332 4414.264 2899.16 4435.507 2808.855 4478.015 2727.415 4520.545 2645.998 4582.53 2580.839 4663.969 2531.941 4745.409 2483.042 4842.792 2458.615 4956.118 2458.659 5070.861 2458.659 5168.604 2483.086 5249.345 2531.941 5330.087 2580.796 5391.701 2645.954 5434.188 2727.415 5476.674 2808.942 5497.928 2899.248 5497.95 2998.332 5497.972 3097.416 5476.717 3187.721 5434.188 3269.247 Z M5649.945 2708.342 C5616.074 2619.716 5564.767 2538.784 5499.062 2470.338 5432.405 2401.136 5352.091 2346.546 5263.217 2310.033 5171.854 2271.778 5069.509 2252.65 4956.183 2252.65 4842.857 2252.65 4740.512 2271.778 4649.149 2310.033 4560.274 2346.546 4479.96 2401.136 4413.304 2470.338 4347.589 2538.776 4296.28 2619.709 4262.421 2708.342 4227.72 2798.31 4210.37 2894.973 4210.37 2998.332 4210.37 3101.69 4227.72 3198.386 4262.42 3288.419 4296.139 3376.803 4347.473 3457.41 4413.304 3525.343 4480.334 3594.1 4560.55 3648.624 4649.149 3685.649 4740.534 3724.667 4842.878 3744.155 4956.183 3744.111 5069.487 3744.067 5171.832 3724.58 5263.216 3685.649 5351.815 3648.624 5432.032 3594.1 5499.062 3525.343 5564.882 3457.402 5616.215 3376.797 5649.945 3288.419 5684.624 3198.451 5701.973 3101.756 5701.995 2998.332 5702.017 2894.907 5684.667 2798.244 5649.945 2708.342 Z M5555.365 3340.469 C5500.142 3443.849 5421.526 3526.009 5319.52 3586.946 5217.514 3647.884 5096.401 3678.342 4956.183 3678.321 4817.339 3678.321 4696.575 3647.863 4593.893 3586.946 4491.21 3526.031 4412.235 3443.871 4356.968 3340.469 4301.745 3237.088 4274.122 3123.042 4274.1 2998.332 4274.1 2872.312 4301.723 2757.928 4356.968 2655.18 4412.213 2552.432 4491.188 2470.644 4593.893 2409.814 4696.575 2348.854 4817.339 2318.385 4956.183 2318.407 5096.401 2318.407 5217.514 2348.876 5319.52 2409.814 5421.526 2470.752 5500.142 2552.541 5555.365 2655.18 5610.632 2757.928 5638.255 2872.312 5638.233 2998.332 5638.189 3123.021 5610.545 3237.066 5555.3 3340.469 Z M5281.21 2474.591 C5190.545 2420.065 5082.181 2392.802 4956.118 2392.802 4830.054 2392.802 4721.69 2420.065 4631.025 2474.591 4540.338 2529.116 4470.927 2602.061 4422.792 2693.424 4374.656 2784.787 4350.578 2886.423 4350.556 2998.331 4350.556 3108.866 4374.634 3210.163 4422.792 3302.224 4470.949 3394.286 4540.36 3467.59 4631.025 3522.137 4721.646 3576.663 4830.011 3603.926 4956.118 3603.926 5082.225 3603.926 5190.589 3576.663 5281.21 3522.137 5371.832 3467.612 5441.243 3394.307 5489.444 3302.224 5537.644 3210.142 5561.701 3108.844 5561.614 2998.331 5561.614 2886.445 5537.535 2784.809 5489.378 2693.424 5441.221 2602.039 5371.832 2529.095 5281.21 2474.591 Z M5434.188 3269.247 C5391.701 3350.774 5330.087 3415.932 5249.345 3464.722 5168.604 3513.511 5070.861 3537.96 4956.118 3538.07 4842.705 3538.07 4745.321 3513.62 4663.969 3464.722 4582.617 3415.823 4520.632 3350.665 4478.015 3269.247 4435.55 3187.808 4414.308 3097.503 4414.286 2998.331 4414.264 2899.16 4435.507 2808.855 4478.015 2727.415 4520.545 2645.998 4582.53 2580.839 4663.969 2531.941 4745.409 2483.042 4842.792 2458.615 4956.118 2458.659 5070.861 2458.659 5168.604 2483.086 5249.345 2531.941 5330.087 2580.796 5391.701 2645.954 5434.188 2727.415 5476.674 2808.942 5497.928 2899.247 5497.95 2998.331 5497.972 3097.415 5476.717 3187.721 5434.188 3269.247 Z M5778.418 2653.217 C5737.286 2548.416 5675.911 2452.745 5597.797 2371.669 5519.913 2290.97 5426.783 2227.59 5318.408 2181.527 5210.033 2135.463 5089.27 2112.432 4956.118 2112.432 4822.922 2112.432 4702.159 2135.463 4593.828 2181.527 4485.496 2227.59 4392.366 2290.97 4314.438 2371.668 4236.317 2452.739 4174.941 2548.412 4133.816 2653.217 4091.33 2760.087 4070.076 2875.169 4070.054 2998.462 4070.032 3121.756 4091.287 3236.772 4133.816 3343.511 4174.933 3448.331 4236.31 3544.015 4314.438 3625.093 4392.3 3705.791 4485.43 3769.171 4593.828 3815.234 4702.224 3861.298 4822.988 3884.329 4956.118 3884.329 5089.16 3884.329 5209.923 3861.298 5318.408 3815.234 5426.892 3769.171 5520.021 3705.791 5597.797 3625.093 5675.914 3544.006 5737.29 3448.324 5778.418 3343.511 5820.926 3236.641 5842.17 3121.548 5842.148 2998.233 5842.126 2874.918 5820.883 2759.913 5778.418 2653.217 Z M5719.989 3318.255 C5682.419 3415.981 5625.691 3505.21 5553.141 3580.698 5480.905 3655.791 5394.503 3714.569 5293.937 3757.034 5193.37 3799.498 5080.752 3820.752 4956.085 3820.796 4831.396 3820.796 4718.778 3799.542 4618.233 3757.034 4517.688 3714.526 4431.276 3655.747 4358.997 3580.698 4286.444 3505.212 4229.716 3415.982 4192.148 3318.255 4153.173 3218.408 4133.696 3111.81 4133.718 2998.462 4133.74 2885.115 4153.217 2778.517 4192.148 2678.67 4229.748 2580.969 4286.472 2491.755 4358.996 2416.26 4431.254 2341.254 4517.666 2282.486 4618.233 2239.956 4718.8 2197.426 4831.417 2176.172 4956.085 2176.194 5080.73 2176.194 5193.348 2197.448 5293.937 2239.956 5394.525 2282.464 5480.927 2341.232 5553.141 2416.26 5625.663 2491.757 5682.387 2580.969 5719.989 2678.67 5758.92 2778.582 5778.396 2885.18 5778.418 2998.462 5778.44 3111.745 5758.964 3218.299 5719.989 3318.125 Z M5498.996 2470.338 C5432.34 2401.136 5352.026 2346.546 5263.151 2310.033 5171.788 2271.778 5069.444 2252.65 4956.118 2252.65 4842.792 2252.65 4740.447 2271.778 4649.084 2310.033 4560.209 2346.546 4479.895 2401.136 4413.239 2470.338 4347.523 2538.776 4296.215 2619.709 4262.355 2708.342 4227.655 2798.31 4210.305 2894.973 4210.305 2998.332 4210.305 3101.69 4227.655 3198.386 4262.355 3288.419 4296.074 3376.803 4347.407 3457.41 4413.238 3525.343 4480.269 3594.1 4560.485 3648.624 4649.083 3685.649 4740.468 3724.667 4842.813 3744.155 4956.117 3744.111 5069.422 3744.067 5171.766 3724.58 5263.151 3685.649 5351.75 3648.624 5431.966 3594.1 5498.996 3525.343 5564.817 3457.402 5616.149 3376.797 5649.879 3288.419 5684.558 3198.451 5701.908 3101.756 5701.93 2998.332 5701.952 2894.907 5684.624 2798.244 5649.945 2708.342 5616.054 2619.71 5564.726 2538.778 5498.997 2470.338 Z M5555.3 3340.567 C5500.076 3443.948 5421.461 3526.107 5319.455 3587.044 5217.448 3647.982 5096.335 3678.44 4956.118 3678.419 4817.273 3678.419 4696.51 3647.961 4593.828 3587.044 4491.145 3526.128 4412.17 3443.969 4356.902 3340.567 4301.679 3237.186 4274.057 3123.141 4274.035 2998.429 4274.035 2872.41 4301.657 2758.026 4356.902 2655.278 4412.148 2552.53 4491.123 2470.741 4593.828 2409.912 4696.51 2348.953 4817.273 2318.484 4956.118 2318.506 5096.335 2318.506 5217.448 2348.975 5319.455 2409.912 5421.461 2470.85 5500.076 2552.639 5555.3 2655.278 5610.567 2758.026 5638.189 2872.41 5638.167 2998.429 5638.167 3123.053 5610.545 3237.066 5555.3 3340.469 Z M5281.21 2474.591 C5190.545 2420.065 5082.181 2392.802 4956.118 2392.802 4830.054 2392.802 4721.69 2420.065 4631.025 2474.591 4540.338 2529.116 4470.927 2602.061 4422.792 2693.424 4374.656 2784.787 4350.578 2886.423 4350.556 2998.331 4350.556 3108.866 4374.634 3210.163 4422.792 3302.224 4470.948 3394.286 4540.359 3467.59 4631.025 3522.137 4721.646 3576.663 4830.011 3603.926 4956.118 3603.926 5082.224 3603.926 5190.588 3576.663 5281.21 3522.137 5371.832 3467.612 5441.243 3394.307 5489.444 3302.224 5537.644 3210.142 5561.701 3108.844 5561.614 2998.331 5561.614 2886.445 5537.535 2784.809 5489.378 2693.424 5441.221 2602.039 5371.832 2529.095 5281.21 2474.591 Z M5434.188 3269.247 C5391.701 3350.774 5330.087 3415.932 5249.345 3464.722 5168.604 3513.511 5070.861 3537.96 4956.118 3538.07 4842.705 3538.07 4745.321 3513.62 4663.969 3464.722 4582.617 3415.823 4520.632 3350.665 4478.015 3269.247 4435.55 3187.808 4414.308 3097.502 4414.286 2998.331 4414.264 2899.16 4435.507 2808.855 4478.015 2727.415 4520.545 2645.997 4582.53 2580.839 4663.969 2531.941 4745.409 2483.042 4842.792 2458.615 4956.118 2458.658 5070.861 2458.658 5168.604 2483.086 5249.345 2531.941 5330.087 2580.796 5391.701 2645.954 5434.188 2727.415 5476.674 2808.942 5497.928 2899.247 5497.95 2998.331 5497.972 3097.415 5476.717 3187.721 5434.188 3269.247 Z" fill="#000000" fill-opacity="1" stroke="none"/>
   <path id="Path-4" d="M1871.32 2497.132 L1873.642 2497.132 C1874.535 2498.713 1875.344 2500.34 1876.063 2502.007 1894.122 2543.98 1898.146 2590.992 1902.432 2640.752 L1902.628 2643.108 C1913.533 2770.414 1924.438 2897.732 1935.344 3025.06 1958.833 3299.869 1983.108 3583.74 2007.677 3863.064 2009.967 3889.236 2004.406 3906.641 1987.754 3925.387 1947.023 3971.188 1906.62 4018.561 1867.59 4064.264 L1837.426 4099.563 1824.144 4084.155 C1786.979 4041.069 1751.876 4000.403 1716.183 3958.888 1709.64 3951.167 1703.664 3944.285 1698.255 3938.244 1681.112 3918.615 1669.793 3905.529 1667.797 3898.495 1665.213 3889.367 1667.208 3866.826 1670.185 3832.737 1670.611 3827.797 1671.069 3822.595 1671.527 3817.066 1682.584 3688.931 1693.621 3560.763 1704.635 3432.563 1726.423 3177.612 1748.964 2913.958 1771.472 2654.689 1772.061 2647.786 1772.617 2640.851 1773.173 2633.948 1776.772 2588.931 1780.207 2546.401 1796.074 2508.419 1797.603 2504.703 1799.317 2501.067 1801.211 2497.524 1802.977 2497.328 1805.594 2497.198 1809.455 2497.165 L1871.32 2497.165 M1871.32 2448.092 L1809.422 2448.092 C1775.136 2448.092 1764.471 2457.154 1750.927 2489.411 1729.171 2541.134 1727.306 2596.096 1722.563 2650.436 1688.975 3037.917 1655.682 3425.42 1622.683 3812.944 1612.868 3926.925 1610.48 3911.091 1678.953 3990.916 1730.742 4051.309 1782.792 4111.472 1837.099 4174.482 1844.297 4166.434 1849.466 4160.807 1854.471 4154.853 1911.003 4089.127 1966.816 4022.748 2024.362 3957.906 2050.207 3928.79 2059.924 3898.037 2056.456 3858.713 2020.731 3452.126 1985.725 3045.496 1951.439 2638.822 1946.859 2585.725 1942.541 2532.53 1921.014 2482.541 1910.709 2458.626 1896.739 2447.928 1871.221 2447.928 Z" fill="#000000" fill-opacity="1" stroke="none"/>
   <path id="Path-5" d="M1815.147 2191.93 C1838.506 2191.93 1862.552 2192.486 1885.812 2193.01 1902.988 2193.402 1920.72 2193.795 1938.157 2193.991 1942.408 2195.067 1946.583 2196.421 1950.654 2198.048 L1950.981 2198.048 C1953.741 2198.956 1956.369 2200.221 1958.8 2201.81 1958.802 2203.692 1958.604 2205.567 1958.211 2207.406 1953.318 2233.919 1946.138 2259.959 1936.75 2285.235 1929.749 2303.849 1921.08 2322.236 1911.919 2341.734 1906.39 2353.511 1900.665 2365.714 1895.234 2378.146 L1895.234 2378.342 C1893.846 2378.529 1892.447 2378.615 1891.047 2378.604 L1888.822 2378.604 C1877.339 2378.146 1865.529 2377.524 1854.079 2376.936 L1838.212 2376.151 1787.634 2373.664 1787.634 2377.459 1781.909 2377.459 C1776.903 2365.649 1771.767 2353.839 1766.761 2342.355 1749.422 2302.476 1733.032 2264.787 1720.96 2225.922 1716.02 2210.12 1716.478 2202.464 1716.838 2200.076 1718.899 2198.866 1725.671 2195.725 1741.603 2194.515 1763.621 2192.813 1787.143 2192.029 1815.54 2192.029 M1815.54 2142.955 C1789.597 2142.955 1763.653 2143.61 1737.841 2145.573 1675.911 2150.316 1655.627 2181.56 1674.144 2240.447 1691.45 2295.703 1716.674 2348.408 1739.182 2402.061 1746.118 2418.419 1760.382 2426.336 1778.441 2426.401 L1835.922 2426.401 C1835.922 2425.943 1835.922 2425.485 1835.922 2425.027 1852.933 2425.878 1869.946 2426.827 1886.958 2427.514 L1891.178 2427.514 C1913.064 2427.514 1930.633 2420.054 1940.447 2397.612 1954.351 2365.747 1970.676 2334.831 1982.977 2302.344 1993.451 2274.467 2001.485 2245.733 2006.99 2216.467 2013.141 2183.751 1999.433 2163.304 1968.452 2151.919 1959.193 2148.648 1949.28 2144.853 1939.662 2144.755 1898.342 2144.329 1856.892 2142.693 1815.573 2142.693 Z" fill="#000000" fill-opacity="1" stroke="none"/>
  </g>
 </g>
 <g id="Tie-I-Hanging">
  <g id="Layer_1-2-1">
   <path id="Path-6" d="M6000 3000 C6000 4656.854 4656.854 6000 3000 6000 1343.146 6000 0 4656.854 0 3000 0 1343.146 1343.146 0 3000 0 4656.854 0 6000 1343.146 6000 3000 Z" fill="#f2f2f2" fill-opacity="1" stroke="none"/>
   <path id="Path-7" d="M761.778 3788.768 L761.778 3852.563 1488.55 3852.563 1488.55 3788.768 Z M761.778 3648.55 L761.778 3712.279 1488.55 3712.279 1488.55 3648.55 Z M761.778 3508.332 L761.778 3572.028 1488.55 3572.028 1488.55 3508.332 Z M621.592 2144.198 L621.592 3852.563 685.354 3852.563 685.354 2144.198 Z M481.374 2144.198 L481.374 3852.563 545.038 3852.563 545.038 2144.198 Z M341.123 2144.198 L341.123 3852.563 404.886 3852.563 404.886 2144.198 Z" fill="#000000" fill-opacity="1" stroke="none"/>
   <path id="Path-8" d="M2181.101 2144.198 L2181.101 3852.563 2244.864 3852.563 2244.864 2144.198 Z M2321.352 2144.198 L2321.352 3852.563 2384.951 3852.563 2384.951 2144.198 Z M2461.603 2144.198 L2461.603 3852.563 2525.333 3852.563 2525.333 2144.198 Z M2601.821 2735.005 L2601.821 2845.452 2788.822 3111.036 2827.067 3055.616 Z M2601.821 2490.654 L2601.821 2600.872 2873.817 2989.858 2912.061 2932.475 Z M2601.821 2233.511 L2601.821 2346.02 2960.905 2866.587 2999.149 2809.269 Z M3007.656 3425.3 L3045.802 3480.687 3479.28 2864.526 3479.28 2751.886 Z M2922.595 3302.061 L2960.84 3359.444 3479.313 2620.076 3479.313 2507.535 Z M2835.474 3178.855 L2875.845 3234.111 3479.313 2371.407 3479.313 2263.184 Z M3555.802 2144.068 L3555.802 3852.563 3619.531 3852.563 3619.531 2144.198 Z M3696.052 2144.068 L3696.052 3852.563 3759.782 3852.563 3759.782 2144.198 Z M3836.271 2144.068 L3836.271 3852.563 3900.033 3852.563 3900.033 2144.198 Z" fill="#000000" fill-opacity="1" stroke="none"/>
   <path id="Path-9" d="M5489.444 2693.424 C5441.287 2602.061 5371.875 2529.116 5281.21 2474.591 5190.545 2420.065 5082.181 2392.802 4956.118 2392.802 4830.033 2392.802 4721.668 2420.065 4631.025 2474.591 4540.381 2529.116 4470.97 2602.061 4422.792 2693.424 4374.591 2784.809 4350.513 2886.445 4350.556 2998.332 4350.556 3108.866 4374.634 3210.164 4422.792 3302.225 4470.949 3394.286 4540.36 3467.59 4631.025 3522.137 4721.646 3576.663 4830.011 3603.926 4956.118 3603.926 5082.225 3603.926 5190.589 3576.663 5281.21 3522.137 5371.832 3467.612 5441.243 3394.308 5489.444 3302.225 5537.644 3210.142 5561.701 3108.844 5561.614 2998.332 5561.614 2886.445 5537.557 2784.809 5489.444 2693.424 Z M5434.188 3269.215 C5391.701 3350.741 5330.087 3415.9 5249.345 3464.689 5168.604 3513.479 5070.861 3537.928 4956.118 3538.037 4842.705 3538.037 4745.321 3513.588 4663.969 3464.689 4582.617 3415.791 4520.632 3350.632 4478.015 3269.215 4435.55 3187.775 4414.308 3097.47 4414.286 2998.299 4414.264 2899.128 4435.507 2808.822 4478.015 2727.383 4520.545 2645.965 4582.53 2580.807 4663.969 2531.908 4745.409 2483.01 4842.792 2458.583 4956.118 2458.626 5070.861 2458.626 5168.604 2483.053 5249.345 2531.908 5330.087 2580.764 5391.701 2645.922 5434.188 2727.383 5476.674 2808.909 5497.928 2899.215 5497.95 2998.299 5497.972 3097.383 5476.717 3187.699 5434.188 3269.248 Z M5489.444 2693.424 C5441.287 2602.061 5371.875 2529.116 5281.21 2474.591 5190.545 2420.065 5082.181 2392.802 4956.118 2392.802 4830.033 2392.802 4721.668 2420.065 4631.025 2474.591 4540.381 2529.116 4470.97 2602.061 4422.792 2693.424 4374.591 2784.809 4350.513 2886.445 4350.556 2998.332 4350.556 3108.866 4374.634 3210.164 4422.792 3302.225 4470.949 3394.286 4540.36 3467.59 4631.025 3522.137 4721.646 3576.663 4830.011 3603.926 4956.118 3603.926 5082.225 3603.926 5190.589 3576.663 5281.21 3522.137 5371.832 3467.612 5441.243 3394.308 5489.444 3302.225 5537.644 3210.142 5561.701 3108.844 5561.614 2998.332 5561.614 2886.445 5537.557 2784.809 5489.444 2693.424 Z M5434.188 3269.215 C5391.701 3350.741 5330.087 3415.9 5249.345 3464.689 5168.604 3513.479 5070.861 3537.928 4956.118 3538.037 4842.705 3538.037 4745.321 3513.588 4663.969 3464.689 4582.617 3415.791 4520.632 3350.632 4478.015 3269.215 4435.55 3187.775 4414.308 3097.47 4414.286 2998.299 4414.264 2899.128 4435.507 2808.822 4478.015 2727.383 4520.545 2645.965 4582.53 2580.807 4663.969 2531.908 4745.409 2483.01 4842.792 2458.583 4956.118 2458.626 5070.861 2458.626 5168.604 2483.053 5249.345 2531.908 5330.087 2580.764 5391.701 2645.922 5434.188 2727.383 5476.674 2808.909 5497.928 2899.215 5497.95 2998.299 5497.972 3097.383 5476.717 3187.699 5434.188 3269.248 Z M5649.945 2708.342 C5616.073 2619.715 5564.767 2538.784 5499.062 2470.338 5432.405 2401.136 5352.091 2346.546 5263.217 2310.033 5171.854 2271.778 5069.509 2252.65 4956.183 2252.65 4842.857 2252.65 4740.512 2271.778 4649.149 2310.033 4560.274 2346.546 4479.96 2401.136 4413.304 2470.338 4347.589 2538.776 4296.28 2619.709 4262.421 2708.342 4227.72 2798.31 4210.37 2894.973 4210.37 2998.332 4210.37 3101.69 4227.72 3198.386 4262.42 3288.419 4296.139 3376.803 4347.473 3457.41 4413.304 3525.343 4480.334 3594.1 4560.55 3648.624 4649.149 3685.649 4740.534 3724.667 4842.878 3744.155 4956.183 3744.111 5069.487 3744.067 5171.832 3724.58 5263.216 3685.649 5351.815 3648.624 5432.032 3594.1 5499.062 3525.343 5564.882 3457.402 5616.215 3376.797 5649.945 3288.419 5684.624 3198.451 5701.973 3101.756 5701.995 2998.332 5702.017 2894.907 5684.667 2798.244 5649.945 2708.342 Z M5555.365 3340.469 C5500.142 3443.849 5421.526 3526.009 5319.52 3586.946 5217.514 3647.884 5096.401 3678.342 4956.183 3678.321 4817.339 3678.321 4696.575 3647.863 4593.893 3586.946 4491.21 3526.031 4412.235 3443.871 4356.968 3340.469 4301.745 3237.088 4274.122 3123.042 4274.1 2998.332 4274.1 2872.312 4301.723 2757.928 4356.968 2655.18 4412.213 2552.432 4491.188 2470.644 4593.893 2409.814 4696.575 2348.854 4817.339 2318.385 4956.183 2318.407 5096.401 2318.407 5217.514 2348.876 5319.52 2409.814 5421.526 2470.752 5500.142 2552.541 5555.365 2655.18 5610.632 2757.928 5638.255 2872.312 5638.233 2998.332 5638.189 3123.021 5610.545 3237.066 5555.3 3340.469 Z M5281.21 2474.591 C5190.545 2420.065 5082.181 2392.802 4956.118 2392.802 4830.054 2392.802 4721.69 2420.065 4631.025 2474.591 4540.338 2529.116 4470.927 2602.061 4422.792 2693.424 4374.656 2784.787 4350.578 2886.423 4350.556 2998.332 4350.556 3108.866 4374.634 3210.164 4422.792 3302.224 4470.949 3394.286 4540.36 3467.59 4631.025 3522.137 4721.646 3576.663 4830.011 3603.926 4956.118 3603.926 5082.225 3603.926 5190.589 3576.663 5281.21 3522.137 5371.832 3467.612 5441.243 3394.307 5489.444 3302.224 5537.644 3210.142 5561.701 3108.844 5561.614 2998.332 5561.614 2886.445 5537.535 2784.809 5489.378 2693.424 5441.221 2602.039 5371.832 2529.095 5281.21 2474.591 Z M5434.188 3269.247 C5391.701 3350.774 5330.087 3415.932 5249.345 3464.722 5168.604 3513.511 5070.861 3537.96 4956.118 3538.07 4842.705 3538.07 4745.321 3513.62 4663.969 3464.722 4582.617 3415.823 4520.632 3350.665 4478.015 3269.247 4435.55 3187.808 4414.308 3097.503 4414.286 2998.332 4414.264 2899.16 4435.507 2808.855 4478.015 2727.415 4520.545 2645.998 4582.53 2580.839 4663.969 2531.941 4745.409 2483.042 4842.792 2458.615 4956.118 2458.659 5070.861 2458.659 5168.604 2483.086 5249.345 2531.941 5330.087 2580.796 5391.701 2645.954 5434.188 2727.415 5476.674 2808.942 5497.928 2899.248 5497.95 2998.332 5497.972 3097.416 5476.717 3187.721 5434.188 3269.247 Z M5649.945 2708.342 C5616.074 2619.716 5564.767 2538.784 5499.062 2470.338 5432.405 2401.136 5352.091 2346.546 5263.217 2310.033 5171.854 2271.778 5069.509 2252.65 4956.183 2252.65 4842.857 2252.65 4740.512 2271.778 4649.149 2310.033 4560.274 2346.546 4479.96 2401.136 4413.304 2470.338 4347.589 2538.776 4296.28 2619.709 4262.421 2708.342 4227.72 2798.31 4210.37 2894.973 4210.37 2998.332 4210.37 3101.69 4227.72 3198.386 4262.42 3288.419 4296.139 3376.803 4347.473 3457.41 4413.304 3525.343 4480.334 3594.1 4560.55 3648.624 4649.149 3685.649 4740.534 3724.667 4842.878 3744.155 4956.183 3744.111 5069.487 3744.067 5171.832 3724.58 5263.216 3685.649 5351.815 3648.624 5432.032 3594.1 5499.062 3525.343 5564.882 3457.402 5616.215 3376.797 5649.945 3288.419 5684.624 3198.451 5701.973 3101.756 5701.995 2998.332 5702.017 2894.907 5684.667 2798.244 5649.945 2708.342 Z M5555.365 3340.469 C5500.142 3443.849 5421.526 3526.009 5319.52 3586.946 5217.514 3647.884 5096.401 3678.342 4956.183 3678.321 4817.339 3678.321 4696.575 3647.863 4593.893 3586.946 4491.21 3526.031 4412.235 3443.871 4356.968 3340.469 4301.745 3237.088 4274.122 3123.042 4274.1 2998.332 4274.1 2872.312 4301.723 2757.928 4356.968 2655.18 4412.213 2552.432 4491.188 2470.644 4593.893 2409.814 4696.575 2348.854 4817.339 2318.385 4956.183 2318.407 5096.401 2318.407 5217.514 2348.876 5319.52 2409.814 5421.526 2470.752 5500.142 2552.541 5555.365 2655.18 5610.632 2757.928 5638.255 2872.312 5638.233 2998.332 5638.189 3123.021 5610.545 3237.066 5555.3 3340.469 Z M5281.21 2474.591 C5190.545 2420.065 5082.181 2392.802 4956.118 2392.802 4830.054 2392.802 4721.69 2420.065 4631.025 2474.591 4540.338 2529.116 4470.927 2602.061 4422.792 2693.424 4374.656 2784.787 4350.578 2886.423 4350.556 2998.331 4350.556 3108.866 4374.634 3210.163 4422.792 3302.224 4470.949 3394.286 4540.36 3467.59 4631.025 3522.137 4721.646 3576.663 4830.011 3603.926 4956.118 3603.926 5082.225 3603.926 5190.589 3576.663 5281.21 3522.137 5371.832 3467.612 5441.243 3394.307 5489.444 3302.224 5537.644 3210.142 5561.701 3108.844 5561.614 2998.331 5561.614 2886.445 5537.535 2784.809 5489.378 2693.424 5441.221 2602.039 5371.832 2529.095 5281.21 2474.591 Z M5434.188 3269.247 C5391.701 3350.774 5330.087 3415.932 5249.345 3464.722 5168.604 3513.511 5070.861 3537.96 4956.118 3538.07 4842.705 3538.07 4745.321 3513.62 4663.969 3464.722 4582.617 3415.823 4520.632 3350.665 4478.015 3269.247 4435.55 3187.808 4414.308 3097.503 4414.286 2998.331 4414.264 2899.16 4435.507 2808.855 4478.015 2727.415 4520.545 2645.998 4582.53 2580.839 4663.969 2531.941 4745.409 2483.042 4842.792 2458.615 4956.118 2458.659 5070.861 2458.659 5168.604 2483.086 5249.345 2531.941 5330.087 2580.796 5391.701 2645.954 5434.188 2727.415 5476.674 2808.942 5497.928 2899.247 5497.95 2998.331 5497.972 3097.415 5476.717 3187.721 5434.188 3269.247 Z M5778.418 2653.217 C5737.286 2548.416 5675.911 2452.745 5597.797 2371.669 5519.913 2290.97 5426.783 2227.59 5318.408 2181.527 5210.033 2135.463 5089.27 2112.432 4956.118 2112.432 4822.922 2112.432 4702.159 2135.463 4593.828 2181.527 4485.496 2227.59 4392.366 2290.97 4314.438 2371.668 4236.317 2452.739 4174.941 2548.412 4133.816 2653.217 4091.33 2760.087 4070.076 2875.169 4070.054 2998.462 4070.032 3121.756 4091.287 3236.772 4133.816 3343.511 4174.933 3448.331 4236.31 3544.015 4314.438 3625.093 4392.3 3705.791 4485.43 3769.171 4593.828 3815.234 4702.224 3861.298 4822.988 3884.329 4956.118 3884.329 5089.16 3884.329 5209.923 3861.298 5318.408 3815.234 5426.892 3769.171 5520.021 3705.791 5597.797 3625.093 5675.914 3544.006 5737.29 3448.324 5778.418 3343.511 5820.926 3236.641 5842.17 3121.548 5842.148 2998.233 5842.126 2874.918 5820.883 2759.913 5778.418 2653.217 Z M5719.989 3318.255 C5682.419 3415.981 5625.691 3505.21 5553.141 3580.698 5480.905 3655.791 5394.503 3714.569 5293.937 3757.034 5193.37 3799.498 5080.752 3820.752 4956.085 3820.796 4831.396 3820.796 4718.778 3799.542 4618.233 3757.034 4517.688 3714.526 4431.276 3655.747 4358.997 3580.698 4286.444 3505.212 4229.716 3415.982 4192.148 3318.255 4153.173 3218.408 4133.696 3111.81 4133.718 2998.462 4133.74 2885.115 4153.217 2778.517 4192.148 2678.67 4229.748 2580.969 4286.472 2491.755 4358.996 2416.26 4431.254 2341.254 4517.666 2282.486 4618.233 2239.956 4718.8 2197.426 4831.417 2176.172 4956.085 2176.194 5080.73 2176.194 5193.348 2197.448 5293.937 2239.956 5394.525 2282.464 5480.927 2341.232 5553.141 2416.26 5625.663 2491.757 5682.387 2580.969 5719.989 2678.67 5758.92 2778.582 5778.396 2885.18 5778.418 2998.462 5778.44 3111.745 5758.964 3218.299 5719.989 3318.125 Z M5498.996 2470.338 C5432.34 2401.136 5352.026 2346.546 5263.151 2310.033 5171.788 2271.778 5069.444 2252.65 4956.118 2252.65 4842.792 2252.65 4740.447 2271.778 4649.084 2310.033 4560.209 2346.546 4479.895 2401.136 4413.239 2470.338 4347.523 2538.776 4296.215 2619.709 4262.355 2708.342 4227.655 2798.31 4210.305 2894.973 4210.305 2998.332 4210.305 3101.69 4227.655 3198.386 4262.355 3288.419 4296.074 3376.803 4347.407 3457.41 4413.238 3525.343 4480.269 3594.1 4560.485 3648.624 4649.083 3685.649 4740.468 3724.667 4842.813 3744.155 4956.117 3744.111 5069.422 3744.067 5171.766 3724.58 5263.151 3685.649 5351.75 3648.624 5431.966 3594.1 5498.996 3525.343 5564.817 3457.402 5616.149 3376.797 5649.879 3288.419 5684.558 3198.451 5701.908 3101.756 5701.93 2998.332 5701.952 2894.907 5684.624 2798.244 5649.945 2708.342 5616.054 2619.71 5564.726 2538.778 5498.997 2470.338 Z M5555.3 3340.567 C5500.076 3443.948 5421.461 3526.107 5319.455 3587.044 5217.448 3647.982 5096.335 3678.44 4956.118 3678.419 4817.273 3678.419 4696.51 3647.961 4593.828 3587.044 4491.145 3526.128 4412.17 3443.969 4356.902 3340.567 4301.679 3237.186 4274.057 3123.141 4274.035 2998.429 4274.035 2872.41 4301.657 2758.026 4356.902 2655.278 4412.148 2552.53 4491.123 2470.741 4593.828 2409.912 4696.51 2348.953 4817.273 2318.484 4956.118 2318.506 5096.335 2318.506 5217.448 2348.975 5319.455 2409.912 5421.461 2470.85 5500.076 2552.639 5555.3 2655.278 5610.567 2758.026 5638.189 2872.41 5638.167 2998.429 5638.167 3123.053 5610.545 3237.066 5555.3 3340.469 Z M5281.21 2474.591 C5190.545 2420.065 5082.181 2392.802 4956.118 2392.802 4830.054 2392.802 4721.69 2420.065 4631.025 2474.591 4540.338 2529.116 4470.927 2602.061 4422.792 2693.424 4374.656 2784.787 4350.578 2886.423 4350.556 2998.331 4350.556 3108.866 4374.634 3210.163 4422.792 3302.224 4470.948 3394.286 4540.359 3467.59 4631.025 3522.137 4721.646 3576.663 4830.011 3603.926 4956.118 3603.926 5082.224 3603.926 5190.588 3576.663 5281.21 3522.137 5371.832 3467.612 5441.243 3394.307 5489.444 3302.224 5537.644 3210.142 5561.701 3108.844 5561.614 2998.331 5561.614 2886.445 5537.535 2784.809 5489.378 2693.424 5441.221 2602.039 5371.832 2529.095 5281.21 2474.591 Z M5434.188 3269.247 C5391.701 3350.774 5330.087 3415.932 5249.345 3464.722 5168.604 3513.511 5070.861 3537.96 4956.118 3538.07 4842.705 3538.07 4745.321 3513.62 4663.969 3464.722 4582.617 3415.823 4520.632 3350.665 4478.015 3269.247 4435.55 3187.808 4414.308 3097.502 4414.286 2998.331 4414.264 2899.16 4435.507 2808.855 4478.015 2727.415 4520.545 2645.997 4582.53 2580.839 4663.969 2531.941 4745.409 2483.042 4842.792 2458.615 4956.118 2458.658 5070.861 2458.658 5168.604 2483.086 5249.345 2531.941 5330.087 2580.796 5391.701 2645.954 5434.188 2727.415 5476.674 2808.942 5497.928 2899.247 5497.95 2998.331 5497.972 3097.415 5476.717 3187.721 5434.188 3269.247 Z" fill="#000000" fill-opacity="1" stroke="none"/>
   <path id="Path-10" d="M1871.32 2497.132 L1873.642 2497.132 C1874.535 2498.713 1875.344 2500.34 1876.063 2502.007 1894.122 2543.98 1898.146 2590.992 1902.432 2640.752 L1902.628 2643.108 C1913.533 2770.414 1924.438 2897.732 1935.344 3025.06 1958.833 3299.869 1983.108 3583.74 2007.677 3863.064 2009.967 3889.236 2004.406 3906.641 1987.754 3925.387 1947.023 3971.188 1906.62 4018.561 1867.59 4064.264 L1837.426 4099.563 1824.144 4084.155 C1786.979 4041.069 1751.876 4000.403 1716.183 3958.888 1709.64 3951.167 1703.664 3944.285 1698.255 3938.244 1681.112 3918.615 1669.793 3905.529 1667.797 3898.495 1665.213 3889.367 1667.208 3866.826 1670.185 3832.737 1670.611 3827.797 1671.069 3822.595 1671.527 3817.066 1682.584 3688.931 1693.621 3560.763 1704.635 3432.563 1726.423 3177.612 1748.964 2913.958 1771.472 2654.689 1772.061 2647.786 1772.617 2640.851 1773.173 2633.948 1776.772 2588.931 1780.207 2546.401 1796.074 2508.419 1797.603 2504.703 1799.317 2501.067 1801.211 2497.524 1802.977 2497.328 1805.594 2497.198 1809.455 2497.165 L1871.32 2497.165 M1871.32 2448.092 L1809.422 2448.092 C1775.136 2448.092 1764.471 2457.154 1750.927 2489.411 1729.171 2541.134 1727.306 2596.096 1722.563 2650.436 1688.975 3037.917 1655.682 3425.42 1622.683 3812.944 1612.868 3926.925 1610.48 3911.091 1678.953 3990.916 1730.742 4051.309 1782.792 4111.472 1837.099 4174.482 1844.297 4166.434 1849.466 4160.807 1854.471 4154.853 1911.003 4089.127 1966.816 4022.748 2024.362 3957.906 2050.207 3928.79 2059.924 3898.037 2056.456 3858.713 2020.731 3452.126 1985.725 3045.496 1951.439 2638.822 1946.859 2585.725 1942.541 2532.53 1921.014 2482.541 1910.709 2458.626 1896.739 2447.928 1871.221 2447.928 Z" fill="#000000" fill-opacity="1" stroke="none"/>
   <path id="Path-11" d="M1815.147 2191.93 C1838.506 2191.93 1864.74 2191.476 1888 2192 1905.176 2192.392 1921.274 2192.594 1938.157 2193.991 1940.367 2194.551 1945.525 2195.31 1950 2197 1954.131 2198.56 1957.633 2201.047 1958.8 2201.81 1958.802 2203.692 1958.604 2205.567 1958.211 2207.406 1953.318 2233.919 1946.138 2259.959 1936.75 2285.235 1929.749 2303.849 1921.08 2322.236 1911.919 2341.734 1906.39 2353.511 1900.665 2365.714 1895.234 2378.146 L1897.027 2377.281 C1895.639 2377.467 1781.909 2377.459 1781.909 2377.459 1776.903 2365.649 1771.767 2353.839 1766.761 2342.355 1749.422 2302.476 1733.032 2264.787 1720.96 2225.922 1716.02 2210.12 1716.478 2202.464 1716.838 2200.076 1718.899 2198.866 1725.671 2195.725 1741.603 2194.515 1763.621 2192.813 1787.143 2192.029 1815.54 2192.029 M1815.54 2142.955 C1789.597 2142.955 1763.653 2143.61 1737.841 2145.573 1675.911 2150.316 1655.627 2181.56 1674.144 2240.447 1691.45 2295.703 1716.674 2348.408 1739.182 2402.061 1746.118 2418.419 1760.382 2426.336 1778.441 2426.401 L1835.922 2426.401 C1835.922 2425.943 1879.513 2426.93 1891 2426 1912.815 2424.234 1930.633 2420.054 1940.447 2397.612 1954.351 2365.747 1970.676 2334.831 1982.977 2302.344 1993.451 2274.467 2001.485 2245.733 2006.99 2216.467 2013.141 2183.751 1999.433 2163.304 1968.452 2151.919 1959.193 2148.648 1949.28 2144.853 1939.662 2144.755 1898.342 2144.329 1856.892 2142.693 1815.573 2142.693 Z" fill="#000000" fill-opacity="1" stroke="none"/>
  </g>
 </g>
</svg>
